<svg xmlns="http://www.w3.org/2000/svg" width="155" height="24" fill="none" viewBox="0 0 155 24">
<path fill="#263238" d="m18.79 13.13-5.4 9.24L8 13.13H18.8Zm1.44-.82H6.55L13.4 24l6.83-11.7ZM28.16 1.65l5.39 9.23H22.77l5.39-9.23Zm0-1.65-6.84 11.7H35L28.16 0Z"/>
<path fill="#4CAF4F" d="m0 0 5.74 10.34L12 .26 0 0ZM13.4.9 19.4 11.2H7.37L13.4.9ZM20.96 13.43 26.98 24H14.65l6.12-10.57h.2ZM22.27 12.8l5.89 10.4 5.97-10.4H22.27Z"/>
<path fill="#263238" d="M60.03 1.67v20.36h-3.72L47.45 9.22h-.14v12.81H43V1.67h3.78l8.79 12.8h.18V1.68h4.28ZM70.47 22.33a8.16 8.16 0 0 1-4.06-.95 6.54 6.54 0 0 1-2.6-2.73 9 9 0 0 1-.92-4.18c0-1.58.3-2.95.92-4.14a6.76 6.76 0 0 1 2.57-2.77c1.12-.67 2.42-1 3.92-1 1 0 1.95.16 2.82.49a6.24 6.24 0 0 1 3.81 3.87c.37.96.55 2.1.55 3.4v1.16h-12.9v-2.63h8.91c0-.6-.13-1.15-.4-1.62a2.85 2.85 0 0 0-1.1-1.1c-.46-.27-1-.4-1.62-.4a3.14 3.14 0 0 0-2.86 1.63 3.34 3.34 0 0 0-.43 1.63v2.5c0 .76.14 1.4.42 1.96.28.55.68.97 1.2 1.27.52.3 1.13.45 1.84.45a4 4 0 0 0 1.3-.2 2.6 2.6 0 0 0 1.64-1.57l3.91.26c-.2.94-.6 1.76-1.22 2.46-.61.7-1.4 1.24-2.37 1.63-.96.39-2.07.58-3.33.58ZM83.51 6.76l2.8 5.34 2.88-5.34h4.34l-4.42 7.64 4.54 7.63h-4.32l-3.02-5.28-2.96 5.28h-4.37l4.53-7.63-4.37-7.64h4.37ZM102.4 22.33a7.82 7.82 0 0 1-4.03-1 6.72 6.72 0 0 1-2.59-2.78 9 9 0 0 1-.9-4.1c0-1.56.3-2.93.91-4.11a6.72 6.72 0 0 1 2.6-2.77c1.12-.67 2.45-1 4-1 1.33 0 2.5.23 3.5.72 1 .48 1.79 1.16 2.37 2.04a6 6 0 0 1 .96 3.08h-4a3.09 3.09 0 0 0-.89-1.84c-.47-.47-1.1-.7-1.88-.7-.65 0-1.23.17-1.72.53-.48.35-.86.86-1.13 1.54-.27.68-.4 1.5-.4 2.46 0 .97.12 1.8.39 2.48.27.68.65 1.2 1.14 1.56.5.36 1.07.54 1.72.54.49 0 .92-.1 1.3-.3.4-.2.72-.49.97-.86.26-.39.43-.85.5-1.39h4a6.26 6.26 0 0 1-.95 3.09 5.77 5.77 0 0 1-2.34 2.07c-1 .5-2.17.74-3.53.74ZM118.9 22.33a8.16 8.16 0 0 1-4.06-.95 6.54 6.54 0 0 1-2.6-2.73 9.02 9.02 0 0 1-.92-4.18c0-1.58.3-2.95.91-4.14a6.76 6.76 0 0 1 2.58-2.77c1.11-.67 2.42-1 3.92-1 1 0 1.94.16 2.81.49a6.24 6.24 0 0 1 3.82 3.87c.36.96.55 2.1.55 3.4v1.16H113v-2.63h8.9c0-.6-.12-1.15-.39-1.62a2.85 2.85 0 0 0-1.1-1.1c-.47-.27-1-.4-1.62-.4a3.14 3.14 0 0 0-2.86 1.63 3.34 3.34 0 0 0-.43 1.63v2.5c0 .76.13 1.4.41 1.96.29.55.69.97 1.2 1.27.52.3 1.14.45 1.85.45.47 0 .9-.07 1.29-.2s.72-.33 1-.6c.28-.26.5-.59.64-.97l3.92.26c-.2.94-.61 1.76-1.23 2.46-.6.7-1.4 1.24-2.36 1.63-.96.39-2.07.58-3.33.58ZM132.9 13.2v8.83h-4.23V6.76h4.04v2.7h.18c.33-.9.9-1.6 1.7-2.11.8-.53 1.76-.79 2.89-.79 1.06 0 1.99.23 2.77.7.8.46 1.4 1.12 1.84 1.99.44.85.66 1.87.66 3.06v9.72h-4.24v-8.97c.01-.93-.23-1.66-.71-2.18a2.57 2.57 0 0 0-2-.8c-.57 0-1.07.12-1.51.37-.43.24-.77.6-1.02 1.07a3.73 3.73 0 0 0-.36 1.68ZM154.21 6.76v3.18h-9.2V6.76h9.2Zm-7.1-3.66h4.23v14.24c0 .39.06.7.18.91.12.22.28.37.5.45.21.09.47.13.75.13a3.63 3.63 0 0 0 1.05-.14l.67 3.15c-.21.07-.51.15-.9.23-.38.1-.85.15-1.4.17a6.44 6.44 0 0 1-2.68-.4 3.75 3.75 0 0 1-1.78-1.46 4.44 4.44 0 0 1-.63-2.48V3.1Z"/>
</svg>